<?xml version="1.0" encoding="utf-8"?>
<!-- Generator: Adobe Illustrator 19.0.0, SVG Export Plug-In . SVG Version: 6.00 Build 0)  -->
<svg version="1.1" id="Layer_1" xmlns="http://www.w3.org/2000/svg" xmlns:xlink="http://www.w3.org/1999/xlink" x="0px" y="0px"
	 viewBox="-29 31 40 40" style="enable-background:new -29 31 40 40;" xml:space="preserve">
<style type="text/css">
	.st0{display:none;}
	.st1{display:inline;fill:#010202;stroke:#010202;stroke-width:0.25;stroke-miterlimit:10;}
	.st2{fill:#010202;stroke:#010202;stroke-width:0.1;stroke-miterlimit:10;}
</style>
<g id="Layer_1_1_" class="st0">
	<path id="XMLID_40_" class="st1" d="M8.5,58.1c-0.3,0-0.2,0.3-0.3,0.5c-2.7,5.7-7,9.3-13.1,10.8c-4.9,1.2-9.6,0.6-13.9-1.9
		c-5.6-3.3-8.9-8.2-9.7-14.6c-1-8.3,3.3-16,10.7-19.8c8.3-4.2,18.5-2,24.3,5.3c1.7,2.2,3.2,4.6,3.7,7.4c0.8,4.5,0.6,8.9-1.2,13.1
		c-1.8,4.1-4.6,7.2-8.4,9.4c-2.9,1.7-6,2.5-9.4,2.3c0.9,0,1.8,0,2.6-0.3c1.6-0.6,3.3-0.9,4.8-1.6C0.2,68,1.6,67.1,3,66
		c1.3-1.1,2.5-2.4,3.5-3.8C7.2,60.9,7.9,59.5,8.5,58.1c0.2-0.2,0.2-0.5,0.3-0.7c1.2-3.3,1.4-6.9,0.7-10.3c-1-4.7-3.4-8.6-7.4-11.4
		c-4.2-3-8.8-4.2-13.9-3.4c-7.1,1.1-12.1,5-14.7,11.7c-2.4,6.3-1.6,12.3,2.4,17.7c3.5,4.8,8.4,7.2,14.3,7.5
		c4.6,0.2,8.6-1.3,12.1-4.3c3.6-3,5.7-6.9,6.5-11.5C8.9,52.6,9,51.8,9,51h0.1c0,4.2-1.3,7.9-3.7,11.3c1.4-1.6,2.4-3.5,3.1-5.6
		C8.8,57.3,8.4,57.6,8.5,58.1L8.5,58.1z"/>
	<path id="XMLID_42_" class="st1" d="M-15.6,51.5c-0.2-0.1-0.4-0.1-0.6-0.2c-0.2,0-0.4-0.1-0.5-0.3c-0.4-0.4-0.7-0.8-0.9-1.3
		s-0.4-1-0.5-1.5c0-0.3,0-0.6,0-0.9c0.1-0.4,0.2-0.7,0.3-1.1c0.1-0.3,0.3-0.7,0.4-1c0.1-0.3,0.3-0.5,0.5-0.8
		c0.2-0.4,0.6-0.7,0.9-0.8c0.3-0.1,0.7-0.2,1-0.2c0.4,0,0.7,0.2,1,0.4s0.7,0.4,1,0.7c0.1,0.1,0.3,0.3,0.4,0.4
		c0.1,0.1,0.3,0.3,0.3,0.5c0.2,0.5,0.4,1,0.4,1.6c0.1,0.6,0,1.2-0.1,1.8c-0.1,0.6-0.3,1.1-0.6,1.6c-0.3,0.5-0.7,0.8-1.2,1
		c-0.3,0.1-0.6,0.2-0.9,0.2C-15,51.6-15.3,51.6-15.6,51.5C-15.5,51.6-15.5,51.5-15.6,51.5L-15.6,51.5L-15.6,51.5z M-17.6,47.2
		c0,0.1,0,0.3,0,0.4l0.1-0.1l0.1-0.1l0.8-0.8c0-0.1,0-0.2,0.1-0.4c0-0.1,0-0.3,0.1-0.4c0-0.1,0.1-0.2,0.1-0.5
		c0.1-0.2,0.2-0.4,0.3-0.6s0.2-0.3,0.3-0.5c0.1-0.1,0.3-0.2,0.4-0.2c0.2,0,0.3,0.1,0.5,0.2c0.1,0.1,0.3,0.2,0.4,0.3h0.1
		c0,0,0.1,0,0.1-0.1c0,0,0.1,0,0.1-0.1l-0.1-0.1c0,0-0.1,0-0.1-0.1l-0.3-0.1l-0.3-0.1c-0.3-0.1-0.7,0-0.9,0.2
		c-0.3,0.3-0.6,0.6-0.8,0.9c-0.2,0.4-0.4,0.7-0.6,1.1C-17.4,46.5-17.5,46.8-17.6,47.2z M-17.3,49.6c0,0.1,0.1,0.2,0.2,0.2
		c0,0,0.1,0,0.2,0c0.1,0,0.1-0.1,0.2-0.1c0.1-0.1,0.1-0.1,0.2-0.2c0,0,0,0,0.1,0c0,0,0,0,0.1,0v-0.1v-0.1c-0.1-0.3-0.1-0.5-0.2-0.7
		c0-0.2-0.1-0.5-0.1-0.7c-0.5,0.2-0.8,0.5-0.9,0.7C-17.7,48.8-17.6,49.1-17.3,49.6L-17.3,49.6z M-17.5,48.1L-17.5,48.1
		c0,0.1,0,0.2,0,0.2C-17.5,48.2-17.4,48.2-17.5,48.1C-17.4,48.1-17.5,48.1-17.5,48.1z M-17,47.6L-17,47.6c-0.1,0-0.1,0.1-0.1,0.1
		l-0.1,0.1l0,0C-17.1,47.8-17,47.7-17,47.6z M-16.8,47.5L-16.8,47.5c0.1-0.1,0.2-0.2,0.1-0.2h-0.1C-16.8,47.4-16.8,47.4-16.8,47.5
		L-16.8,47.5z M-16.5,50.5c0.1,0,0.1-0.1,0.2-0.1c0.1,0,0.1-0.1,0.2-0.1l0,0l0,0v-0.1c0,0,0-0.1-0.1-0.1L-16.5,50.5L-16.5,50.5z
		 M-15.2,50.3c0.1,0.1,0.3,0.1,0.4,0.1c0.1,0,0.2-0.1,0.3-0.2c0.1-0.1,0.1-0.2,0.2-0.3c0-0.1,0.1-0.3,0.1-0.4s0.1-0.2,0.1-0.3
		c0-0.1,0-0.2,0-0.2l0.2-2.5c0-0.3,0-0.5-0.1-0.8c-0.1-0.2-0.3-0.5-0.4-0.7c-0.2-0.3-0.5-0.4-0.7-0.3c-0.3,0.2-0.5,0.4-0.6,0.7
		c-0.2,0.4-0.3,0.8-0.4,1.3c-0.1,0.5-0.1,1-0.1,1.5s0.1,0.9,0.3,1.4C-15.7,50-15.5,50.2-15.2,50.3z M-15.4,51c0.1,0,0.2,0.1,0.3,0.1
		s0.2,0,0.3-0.1c-0.2,0-0.5-0.1-0.7-0.2s-0.4-0.3-0.6-0.5c0,0.1,0,0.2,0,0.3c0,0,0,0.1-0.1,0.1c0,0,0,0.1,0.1,0.1
		C-15.9,50.8-15.7,50.9-15.4,51z M-15.5,58.3L-15.5,58.3C-15.4,58.2-15.4,58.2-15.5,58.3c0.1-0.2,0.2-0.3,0.3-0.4l0.3-0.4
		c0.1-0.1,0.2-0.3,0.3-0.4l0.1-0.2l0.4-0.6c0.2-0.3,0.4-0.6,0.6-0.9c0.2-0.3,0.4-0.7,0.6-0.9c0.2-0.3,0.3-0.5,0.4-0.6l0.1-0.1
		c0-0.1,0.1-0.2,0.2-0.3s0.2-0.2,0.3-0.4c0.1-0.1,0.2-0.3,0.3-0.4s0.1-0.2,0.2-0.3l0.4-0.5l0.6-0.8c0.2-0.3,0.4-0.5,0.6-0.8
		c0.2-0.2,0.3-0.4,0.3-0.5c0.1-0.1,0.2-0.3,0.4-0.6l0.6-0.9c0.2-0.3,0.4-0.6,0.6-0.9c0.2-0.3,0.3-0.5,0.4-0.6h0.1l0,0
		c0,0,0.1-0.1,0.2-0.2c0.1-0.1,0.1-0.2,0.2-0.3l0.2-0.3c0-0.1,0.1-0.1,0.1-0.2c0,0,0.1-0.1,0.2-0.3s0.2-0.3,0.3-0.5s0.2-0.4,0.3-0.5
		c0.1-0.1,0.1-0.3,0.2-0.3l0.2-0.3c0.1-0.1,0.1-0.2,0.2-0.3h0.1l0,0c0.1,0,0.3,0,0.5,0c0.1,0,0.3,0,0.4,0.1c0.1,0,0.2,0.1,0.3,0.2
		c0.1,0.1,0.1,0.3,0.1,0.5c0,0.2-0.1,0.5-0.3,0.7c-0.1,0.2-0.3,0.4-0.5,0.6c-0.2,0.2-0.3,0.4-0.5,0.6s-0.3,0.4-0.5,0.6
		c-0.5,0.8-0.9,1.5-1.4,2.3C-7.6,50-8,50.7-8.6,51.4c0,0.1-0.2,0.2-0.4,0.5c-0.2,0.3-0.4,0.6-0.7,0.9c-0.2,0.3-0.5,0.6-0.7,0.9
		c-0.2,0.3-0.3,0.4-0.4,0.5c-0.2,0.3-0.4,0.6-0.6,1c-0.1,0.3-0.3,0.7-0.5,1c0,0.1-0.1,0.2-0.2,0.3l-0.3,0.4
		c-0.1,0.1-0.2,0.3-0.2,0.4c0,0.1-0.1,0.1-0.1,0.2c0,0-0.1,0.1-0.2,0.3c-0.1,0.1-0.2,0.3-0.4,0.5l-0.4,0.4c-0.1,0.1-0.2,0.2-0.2,0.3
		c-0.1,0.1-0.2,0.3-0.3,0.4c-0.1,0.1-0.2,0.2-0.4,0.2c-0.1,0-0.2,0-0.2,0c-0.1,0-0.2,0-0.2,0h-0.4L-15.5,58.3L-15.5,58.3z
		 M-14.9,58.3C-15,58.3-15,58.3-14.9,58.3c0,0.1,0,0.2,0,0.2S-14.9,58.4-14.9,58.3L-14.9,58.3z M-14.4,57.7c0,0-0.1,0.1-0.2,0.2
		c-0.1,0.1-0.1,0.1-0.2,0.2c0.3-0.2,0.5-0.5,0.8-0.7s0.5-0.5,0.7-0.8c0-0.1,0.1-0.1,0.1-0.2L-13,56c0.1-0.1,0.2-0.3,0.3-0.4
		c0.1-0.1,0.2-0.3,0.2-0.3s0-0.1,0.1-0.1v-0.1c-0.2,0.2-0.4,0.4-0.6,0.6c-0.2,0.2-0.3,0.4-0.5,0.7l-0.5,0.7
		C-14,57.3-14.2,57.5-14.4,57.7L-14.4,57.7z M-13.5,45.8c0,0.1,0.1,0.2,0.1,0.3c0,0.2,0,0.3,0.1,0.4c0.2-0.2,0.4-0.3,0.5-0.5
		c0.1-0.1,0.2-0.2,0.2-0.4c0-0.1-0.1-0.3-0.2-0.4c-0.2-0.2-0.3-0.3-0.5-0.5l-0.4,0.4c0,0.1,0.1,0.2,0.1,0.3
		C-13.5,45.7-13.5,45.8-13.5,45.8z M-13.7,49.8c0.1,0,0.1-0.1,0.2-0.1c0.1,0,0.1-0.1,0.2-0.1l1-1c0-0.1,0-0.2,0.1-0.3
		c0-0.1,0-0.2,0-0.4h-0.1l-0.2,0.1h-0.3H-13c0,0-0.1,0.1-0.2,0.1c-0.1,0-0.1,0.1-0.2,0.2C-13.4,48.3-13.7,49.8-13.7,49.8z
		 M-13.6,44.5C-13.6,44.5-13.6,44.6-13.6,44.5c0,0.1,0,0.2,0,0.2C-13.5,44.7-13.5,44.7-13.6,44.5C-13.5,44.6-13.5,44.5-13.6,44.5z
		 M-12.9,49.9L-12.9,49.9c-0.1,0.1,0,0.2,0,0.2C-12.8,50-12.8,50-12.9,49.9C-12.8,49.9-12.8,49.9-12.9,49.9z M-12.6,49.7
		C-12.6,49.7-12.7,49.7-12.6,49.7C-12.7,49.8-12.7,49.8-12.6,49.7C-12.7,49.8-12.7,49.8-12.6,49.7C-12.6,49.8-12.6,49.7-12.6,49.7z
		 M-12.5,47.3h0.1h0.1c0,0,0,0,0-0.1c0-0.1,0-0.1-0.1-0.1C-12.3,47.1-12.5,47.3-12.5,47.3z M-12.5,49.4L-12.5,49.4
		c0,0.1,0,0.2,0,0.2C-12.4,49.6-12.4,49.5-12.5,49.4C-12.4,49.4-12.4,49.4-12.5,49.4z M-10.8,52.3c0,0.1-0.1,0.2-0.2,0.3
		c-0.1,0.2-0.2,0.4-0.4,0.5l-0.3,0.5c-0.1,0.1-0.1,0.2-0.2,0.4c0.1-0.1,0.3-0.2,0.4-0.4c0.1-0.1,0.3-0.3,0.4-0.4
		c0.1-0.1,0.2-0.3,0.4-0.6c0.2-0.3,0.4-0.6,0.7-0.8l0.7-0.8l0.4-0.6c0,0,0.1-0.1,0.1-0.2l0.3-0.4c0.1-0.2,0.2-0.3,0.3-0.5
		C-8.1,49.1-8,49-8,48.9c0,0,0.1-0.1,0.1-0.2c0-0.1,0.1-0.2,0.2-0.3c0-0.1,0.1-0.2,0.1-0.3s0-0.1,0-0.2c-0.1,0.1-0.2,0.2-0.3,0.3
		s-0.2,0.2-0.3,0.3l-1.3,1.8C-9.9,51-10.3,51.6-10.8,52.3L-10.8,52.3z M-5.2,58.9c-0.5-0.1-0.9-0.3-1.3-0.5
		c-0.3-0.2-0.6-0.5-0.8-0.8c-0.2-0.3-0.3-0.7-0.4-1c-0.1-0.4-0.1-0.9-0.2-1.4c0-0.3,0-0.6,0-0.9c0-0.3,0.1-0.7,0.2-1
		c0.1-0.3,0.2-0.6,0.4-0.9c0.1-0.3,0.3-0.5,0.5-0.8c0.1-0.1,0.2-0.2,0.3-0.3c0.1-0.1,0.2-0.2,0.3-0.3c0.1-0.1,0.2-0.2,0.4-0.3
		c0.1-0.1,0.2-0.1,0.4-0.1c0.2,0,0.4,0,0.6,0l0.6,0.2C-3.6,51-3,51.5-2.6,52c0.4,0.6,0.8,1.2,0.9,1.9c0.2,0.7,0.2,1.4,0.1,2.1
		c-0.1,0.7-0.4,1.3-0.8,1.8c-0.4,0.4-0.8,0.7-1.4,0.9C-4.1,59-4.7,59-5.2,58.9L-5.2,58.9z M-7.3,47.2l-0.1,0.1l-0.1,0.1
		c0.1-0.1,0.3-0.2,0.4-0.4c0.1-0.1,0.3-0.3,0.4-0.4l0.3-0.5c0.2-0.3,0.3-0.5,0.5-0.8c0.2-0.3,0.3-0.6,0.5-0.8l0.3-0.5c0,0,0,0,0-0.1
		c0,0,0,0,0-0.1c-0.1,0-0.2,0-0.3,0.1c0,0.1-0.1,0.1-0.1,0.2c-0.1,0.1-0.1,0.2-0.2,0.4c-0.1,0.1-0.2,0.3-0.2,0.4S-6,45-6,45.1
		c-0.1,0.1-0.1,0.2-0.2,0.3c-0.1,0.1-0.1,0.2-0.3,0.3c0,0-0.1,0.1-0.2,0.3c-0.1,0.2-0.2,0.3-0.3,0.4l-0.3,0.5
		C-7.2,47.1-7.3,47.2-7.3,47.2L-7.3,47.2z M-7.3,55C-7.3,55.1-7.3,55.1-7.3,55c0.1,0,0.1-0.1,0.2-0.1c0,0,0-0.1,0.1-0.1
		c0-0.1,0.1-0.1,0.1-0.2c0.1-0.1,0.1-0.1,0.2-0.2s0.2-0.2,0.2-0.2l0.1-0.1l0.1-0.4c-0.1,0.1-0.2,0.1-0.3,0.1c-0.1,0-0.2,0-0.3,0
		c-0.1-0.1-0.1-0.2,0-0.3c0,0,0.1-0.1,0-0.2c-0.2,0.1-0.3,0.3-0.4,0.5c-0.1,0.2-0.1,0.4-0.1,0.6L-7.3,55L-7.3,55z M-7.2,56.3
		C-7.2,56.4-7.1,56.4-7.2,56.3c0,0.1,0.1,0.1,0.1,0.2c0.2-0.2,0.3-0.3,0.5-0.4c0.1-0.1,0.2-0.2,0.2-0.4c0-0.1,0.1-0.3,0.1-0.4
		c0-0.2,0-0.4-0.1-0.6C-6.7,55-7,55.3-7.2,55.6c0,0.1,0,0.3,0,0.4C-7.2,56.1-7.2,56.2-7.2,56.3L-7.2,56.3z M-6.8,57.3
		C-6.7,57.3-6.7,57.3-6.8,57.3c0.1,0.1,0.1,0.1,0.2,0.1c0-0.1,0.1-0.2,0.1-0.3c0.1-0.1,0.1-0.2,0.2-0.3c0-0.1,0.1-0.2,0.1-0.3
		s0-0.2,0-0.3c-0.1,0-0.2,0.1-0.3,0.2c-0.1,0.1-0.2,0.1-0.2,0.2c-0.1,0.1-0.1,0.2-0.1,0.3C-6.9,57.1-6.8,57.2-6.8,57.3L-6.8,57.3z
		 M-6.8,52.6C-6.8,52.6-6.8,52.7-6.8,52.6c-0.1,0.1-0.1,0.1-0.1,0.1h0.1c0.2-0.2,0.5-0.5,0.7-0.7c0.3-0.2,0.5-0.4,0.7-0.7
		c-0.1,0-0.2,0-0.3,0.1c-0.1,0.1-0.3,0.2-0.4,0.4c-0.1,0.1-0.3,0.3-0.4,0.4C-6.6,52.4-6.7,52.5-6.8,52.6L-6.8,52.6z M-6.5,53.1
		l0.2-0.2l0.2-0.2v-0.1l-0.2,0.2L-6.5,53.1L-6.5,53.1z M-6.4,57.6c0.1,0,0.2,0,0.3-0.1C-6,57.4-6,57.3-6,57.2h-0.1
		c0,0-0.1,0.1-0.2,0.1S-6.4,57.5-6.4,57.6L-6.4,57.6L-6.4,57.6z M-6,57.9C-5.9,58-5.9,58-5.8,58s0.1-0.1,0.2-0.1
		c0-0.1-0.1-0.1-0.1-0.2h-0.1C-5.9,57.7-5.9,57.8-6,57.9C-6,57.8-6,57.9-6,57.9z M-4.7,57.5c0.2,0.1,0.4,0.1,0.6-0.1
		c0.2-0.2,0.3-0.5,0.3-0.8c0.1-0.4,0.1-0.8,0.1-1.2c0-0.5,0-0.9-0.1-1.4c0-0.4-0.1-0.8-0.2-1.2c-0.1-0.3-0.2-0.6-0.4-0.7
		C-4.5,52-4.6,52-4.7,52s-0.2,0-0.4,0c-0.2,0.2-0.4,0.4-0.5,0.7s-0.2,0.7-0.3,1c-0.1,0.4-0.1,0.8,0,1.1c0,0.4,0.1,0.8,0.2,1.1
		c0.1,0.3,0.2,0.6,0.4,0.9C-5.2,57.2-4.9,57.4-4.7,57.5L-4.7,57.5z M-5.5,57.9c0,0.1,0.1,0.2,0.1,0.2c0.1,0.1,0.2,0.1,0.3,0
		c0,0-0.1-0.1-0.2-0.1C-5.3,58-5.4,57.9-5.5,57.9L-5.5,57.9L-5.5,57.9z M-4.8,58.2L-4.8,58.2H-5l0,0h0.1
		C-4.9,58.2-4.9,58.2-4.8,58.2z M-4.2,58.2c-0.1,0-0.2,0-0.2,0c-0.1,0-0.2,0-0.2,0c0.4,0.1,0.9,0,1.3-0.2c0.3-0.2,0.6-0.5,0.9-0.8
		s0.4-0.7,0.5-1.1c0.1-0.4,0.1-0.8,0.1-1.3c-0.1,0.1-0.3,0.3-0.5,0.4c-0.1,0.1-0.2,0.2-0.3,0.3c-0.1,0.1-0.2,0.2-0.2,0.3
		C-2.9,56-2.9,56.2-3,56.3c0,0,0,0.1-0.1,0.3c0,0.1-0.1,0.2-0.1,0.3c0,0.1-0.1,0.2-0.2,0.3s-0.1,0.2-0.2,0.3s-0.2,0.2-0.2,0.3
		L-4.2,58.2L-4.2,58.2L-4.2,58.2z M-3.9,51.6L-3.9,51.6C-3.9,51.6-4,51.6-3.9,51.6C-4,51.6-3.9,51.7-3.9,51.6
		C-3.9,51.7-3.9,51.6-3.9,51.6z M-3.8,52.2L-3.8,52.2C-3.7,52.2-3.7,52.1-3.8,52.2c0.1-0.1,0-0.1,0-0.1V52.2z M-3.2,54.3
		c0,0.1,0,0.2,0,0.3s0,0.2,0,0.4l0.9-0.9c0,0,0,0,0-0.1v-0.1c0,0,0-0.1-0.1-0.2l-0.1-0.1c0-0.1-0.1-0.1-0.1-0.2
		c0-0.1-0.1-0.1-0.1-0.2l-0.1-0.1c0-0.1-0.1-0.1-0.2,0c-0.2,0.1-0.3,0.3-0.5,0.5c0,0.2,0,0.3,0,0.5C-3.3,54-3.2,54.2-3.2,54.3
		L-3.2,54.3z M-3.3,52C-3.3,52-3.3,52.1-3.3,52c-0.1,0.1,0,0.2,0,0.2C-3.2,52.2-3.2,52.2-3.3,52C-3.2,52.1-3.2,52-3.3,52z
		 M-3.3,52.6c0.1-0.1,0.2-0.1,0.2-0.2c0-0.1,0-0.1-0.1-0.2L-3.3,52.6L-3.3,52.6z M-3.1,55.5l0.3-0.2c0.1-0.1,0.2-0.2,0.3-0.3
		c0.1-0.1,0.2-0.2,0.3-0.3c0.1-0.1,0.1-0.2,0.1-0.3c-0.1,0.1-0.2,0.1-0.3,0.2c-0.1,0.1-0.2,0.2-0.3,0.3L-2.8,55l-0.1,0.1
		C-3,55.3-3,55.4-3.1,55.5L-3.1,55.5L-3.1,55.5z"/>
</g>
<g id="Layer_2">
	<path id="XMLID_188_" class="st2" d="M-9.8,41.5c0.1,0,0.1,0,0.1,0.1c0.1,0.5,0.2,0.9,0.3,1.4c0,0.1-0.1,0.2-0.1,0.3
		c0,0.1,0,0.1,0,0.1c0.1,0.1,0.2,0.2,0.2,0.3c0,0.2,0,0.4,0.1,0.5c0.1,0.2-0.1,0.3-0.2,0.3c0.3,0.1,0.4,0.4,0.4,0.7
		c0,0.4-0.1,0.8-0.3,1.2c-0.2,0.5-0.4,1-0.7,1.5c-0.1,0.1-0.2,0.1-0.3,0.1c0.1-0.2,0.2-0.4,0.3-0.5c0.3-0.6,0.6-1.2,0.8-1.8
		c0.1-0.2,0.1-0.4,0.1-0.6s-0.1-0.4-0.3-0.4h-0.1c-0.7,0.3-1.5,0.4-2.3,0.5c-1.2,0.1-2.4,0.2-3.6,0.2c-0.9,0-1.7-0.1-2.6-0.2
		c-0.6-0.1-1.1-0.1-1.7-0.2c-0.2,0-0.4-0.1-0.6-0.2c-0.3-0.1-0.3-0.3-0.4-0.6c0-0.3,0.1-0.6,0.1-0.9l0,0c0.1-0.1,0.3-0.1,0.2-0.3
		c-0.1-0.1,0-0.3,0-0.4c0-0.2,0-0.3,0.1-0.5c0-0.3,0.2-0.5,0.2-0.8c0-0.3,0.1-0.5,0.1-0.8c0.1-0.6,0.3-1.2,0.5-1.7
		c0.3-0.6,0.9-1.1,1.4-1.5c0.4-0.3,0.8-0.6,1.2-0.9c-0.1-0.1-0.1-0.1-0.1-0.2c0-0.2,0-0.5,0-0.7c0-0.1,0-0.2-0.1-0.2
		c-0.3,0-0.3,0-0.4-0.4c0-0.4,0-0.7,0.1-1c0-0.1,0.1-0.1,0.2-0.2c0,0,0.1,0,0.1-0.1h-0.1c-0.1,0-0.1,0-0.1-0.1c-0.1-0.3-0.1-0.7,0-1
		c0.1-0.2,0.2-0.4,0.4-0.5c0.4,0,0.8,0,1.3,0c0.7,0,1.4-0.1,2.1,0c0.5,0.1,0.5,0.1,0.7,0.6c0.1,0.2,0.1,0.5,0,0.7v0.1
		c0.1,0.1,0,0.1-0.1,0.1c0,0-0.1,0-0.1,0.1c0,0.1,0,0.1,0.1,0.1s0.1,0.1,0.2,0.2c0.1,0.4,0.1,0.9,0,1.3c0,0.1-0.1,0.1-0.2,0.1
		c-0.3,0-0.3,0-0.3,0.2s0.1,0.4,0,0.5c0,0.1,0,0.1,0.1,0.2c0.6,0.6,1.3,1.1,1.9,1.8c0.7,0.7,1,1.5,1.2,2.5c0,0.2,0.1,0.4,0,0.6
		c0,0.1,0,0.2,0.1,0.2C-9.8,41.4-9.8,41.5-9.8,41.5c-0.1,0-0.1,0-0.2,0c-0.3-0.1-0.5-0.3-0.8-0.4c-0.3-0.1-0.7-0.2-1-0.1
		c-0.6,0.1-1.1,0.3-1.6,0.6c-0.6,0.2-1.1,0.4-1.7,0.4s-1.2-0.2-1.7-0.4c-0.5-0.2-1-0.4-1.5-0.6c-0.6-0.2-1.2-0.1-1.8,0.3
		c-0.1,0.1-0.2,0.1-0.2,0.2c-0.1,0.4-0.1,0.8-0.1,1.3c1.1-0.6,2-0.3,3,0.4c0-0.5,0.1-0.9,0.2-1.3c-0.1,0.4-0.1,0.8-0.2,1.2v0.1
		c0.4,0.2,0.8,0.4,1.3,0.5c0.6,0,1.1-0.1,1.6-0.3c0.5-0.2,1-0.4,1.6-0.7c0.3-0.1,0.7-0.3,1-0.3c0.1,0,0.1,0,0.2,0
		c0.4-0.1,0.8-0.1,1.2,0c0.3,0.1,0.5,0.3,0.7,0.4l0.1,0.1c0.1,0,0-0.1,0-0.2c0-0.1-0.1-0.3-0.1-0.4C-9.7,42.1-9.8,41.8-9.8,41.5
		L-9.8,41.5z M-10.1,40.9c-0.1-0.6-0.2-1.2-0.5-1.7c-0.3-0.6-0.8-1-1.2-1.4c-0.4-0.3-0.8-0.7-1.1-1.1c-0.1-0.1-0.2-0.2-0.3-0.3
		c-0.1-0.1,0-0.3,0-0.4s0-0.1,0-0.2c0-0.3,0-0.3-0.4-0.3c-1,0-2.1,0-3.1,0c-0.1,0-0.1,0.1-0.1,0.1c0,0.2,0,0.5,0,0.7
		c0,0.1,0,0.1-0.1,0.2c-0.2,0.1-0.4,0.3-0.5,0.4c-0.6,0.3-1.1,0.7-1.6,1.2c-0.7,0.8-0.9,1.7-1.1,2.7c0.7-0.4,1.5-0.6,2.3-0.2
		c0-0.4,0-0.8,0.2-1.2c0,0.4-0.1,0.7-0.1,1.1c0,0.1,0,0.1,0.1,0.1c0.3,0.2,0.6,0.3,0.9,0.5c0.1,0,0.1,0,0.1-0.1c0-0.2,0-0.4,0.1-0.6
		c0-0.3,0.1-0.7,0.2-1c0,0.1,0,0.2,0,0.3c-0.1,0.5,0,1-0.2,1.4c0,0.1,0,0.1,0.1,0.1c0.5,0.2,1,0.3,1.5,0.3c0.4-0.1,0.8-0.2,1.2-0.4
		s0.8-0.4,1.2-0.6c0.6-0.2,1.2-0.3,1.8,0C-10.6,40.6-10.4,40.7-10.1,40.9L-10.1,40.9z M-15.1,45.2c1.1,0,2.5-0.1,3.8-0.3
		c0.6-0.1,1.2-0.2,1.8-0.5c0.1-0.1,0.2-0.1,0.1-0.2c0-0.2,0-0.3-0.1-0.5c0,0,0-0.1-0.1-0.1c-0.3-0.2-0.5-0.3-0.7-0.5
		c-0.2-0.1-0.4-0.3-0.7-0.2c-0.3,0-0.7,0-1,0.1c-0.5,0.1-1,0.3-1.4,0.5c-0.3,0.1-0.5,0.3-0.8,0.4c-1.4,0.6-2.7,0.5-3.9-0.3
		c-0.2-0.1-0.5-0.3-0.7-0.4c-0.4-0.2-0.9-0.3-1.3-0.1c-0.7,0.2-0.6,0.1-0.7,0.8c-0.1,0.5,0.1,0.8,0.6,0.9c0.1,0,0.1,0,0.2,0
		c0.4,0,0.8,0.1,1.3,0.1C-17.4,45.2-16.3,45.2-15.1,45.2L-15.1,45.2z M-14,35.2c0.4,0,0.7,0,1.1,0.1c0.1,0,0.1,0,0.1-0.1
		c0-0.4,0-0.8,0-1.2c0,0,0-0.1-0.1-0.1s-0.2-0.1-0.3-0.1c-0.3,0-0.6,0-0.9-0.1c-0.5,0-0.9-0.1-1.4,0c-0.3,0-0.7,0.1-1,0.1
		c-0.2,0-0.3,0-0.5,0c-0.2,0.1-0.2,0.1-0.2,0.3c0,0.3,0,0.7,0,1c0,0.1,0,0.1,0.1,0.1c0.5,0,1,0,1.4,0C-15.2,35.2-14.6,35.2-14,35.2
		L-14,35.2z M-19.1,42.6c-0.5,0-0.9,0.1-1.3,0.2c-0.1,0-0.1,0.1-0.1,0.1c0,0.1,0.1,0.1,0.2,0.1c0.5-0.2,1-0.1,1.4,0.1
		c0.4,0.1,0.8,0.4,1.2,0.6c1.2,0.5,2.4,0.6,3.6,0.1c0.4-0.2,0.8-0.3,1.2-0.5c0.5-0.2,1.1-0.4,1.7-0.4c0.5,0,1,0.1,1.4,0.4
		c0,0,0.1,0.2,0.2,0.1s0-0.2-0.1-0.2c-0.1-0.1-0.2-0.2-0.4-0.3c-0.3-0.2-0.6-0.3-1-0.3c-0.7,0-1.3,0.2-1.9,0.5
		c-0.5,0.2-1,0.4-1.5,0.6c-1.1,0.4-2.2,0.3-3.2-0.4c-0.2-0.1-0.4-0.3-0.6-0.4C-18.5,42.7-18.8,42.6-19.1,42.6L-19.1,42.6z
		 M-13.2,32.4L-13.2,32.4c0.1,0,0.1,0.1,0.1,0.1c0.1,0.2,0.1,0.5,0,0.8c0,0.1-0.1,0.1,0,0.2c0.1,0,0.1-0.1,0.1-0.2
		c0-0.2,0-0.4,0-0.6c0-0.5,0-0.5-0.4-0.5c-1.1-0.1-2.3-0.1-3.4,0.1c-0.1,0-0.3,0.1-0.3,0.2c-0.1,0.3-0.1,0.7,0,1c0,0.1,0,0.1,0.1,0
		c0.1,0,0.1,0,0.1-0.1c-0.1-0.2-0.1-0.5-0.1-0.7v-0.1c0-0.1,0,0,0,0.1c0,0.2,0.1,0.5,0.1,0.7v0.1c0.1,0,0.2,0,0.3-0.1
		c0.1,0,0-0.1,0-0.2c-0.1-0.3,0-0.5,0.1-0.8c0.1,0.3,0.1,0.5,0.1,0.8v0.1c0.1,0,0.2,0,0.2,0c0.1,0,0-0.1,0-0.1c-0.1-0.3,0-0.6,0-0.9
		c0.1,0.1,0.1,0.1,0.1,0.2C-16,32.8-16,33-16,33.2c0,0.1,0,0.1,0.1,0.1s0.1-0.1,0.1-0.1c0-0.2,0-0.4,0-0.7c0,0,0-0.1,0.1-0.1
		c0,0,0,0.1,0.1,0.1v0.1c0,0.2,0,0.4,0,0.6c0,0,0,0.1,0.1,0.1s0-0.1,0-0.1c0-0.2,0-0.4,0-0.6c0-0.1,0-0.2,0.1-0.3
		c0,0.3,0,0.5,0.1,0.8c0,0.2,0,0.2,0.3,0.2c0-0.3,0-0.5,0-0.8v-0.1c0,0,0.1,0,0.1,0.1c-0.1,0.2,0,0.4-0.1,0.7c0,0.1,0,0.1,0.1,0.1
		c0.2,0,0.3,0,0.5,0c0-0.4,0-0.7,0.1-1.1c0.1,0.2,0.1,0.5,0.1,0.7c0-0.2,0.1-0.4,0.1-0.5c0,0,0-0.1,0.1-0.1s0.1,0.1,0.1,0.1
		c0.1,0.3,0,0.7-0.1,1c0.1,0,0.1,0,0.1-0.1c0-0.3,0.1-0.6,0.1-1c0.1,0.2,0.1,0.4,0.1,0.6c0,0.2,0,0.3,0,0.5c0,0.1,0,0.1,0.1,0.1
		s0,0,0-0.1c0-0.3,0-0.6,0.1-0.9c0,0,0-0.1,0.1-0.1C-13.4,32.4-13.3,32.4-13.2,32.4c-0.1,0.2,0,0.3,0,0.4l0,0L-13.2,32.4z
		 M-18.7,40.5c-0.1,0-0.2,0-0.3,0.1c-0.4,0-0.7,0.1-1,0.3c-0.2,0-0.2,0.1-0.2,0.2c0,0.1,0,0.1,0.1,0c0.5-0.4,1.1-0.4,1.7-0.3
		c0.5,0.1,1.1,0.4,1.6,0.6c0.4,0.2,0.8,0.3,1.2,0.4c1,0.1,1.9-0.2,2.7-0.6c0.3-0.2,0.6-0.3,1-0.4c0.4-0.1,0.8-0.1,1.1,0.1
		c0.2,0.1,0.4,0.2,0.5,0.3c0,0,0.1,0.1,0.1,0s0-0.1-0.1-0.2c-0.8-0.6-1.7-0.8-2.7-0.3c-0.4,0.2-0.8,0.4-1.2,0.6
		c-1,0.5-2,0.4-2.9-0.1c-0.3-0.2-0.5-0.3-0.8-0.5C-18.1,40.6-18.4,40.5-18.7,40.5L-18.7,40.5z M-13.1,33.6c-0.1,0-0.1,0.1-0.2,0
		c-0.1-0.1-0.2-0.1-0.3-0.1c-0.8,0-1.5-0.2-2.3-0.1c-0.3,0-0.7,0.1-1,0.1c-0.1,0-0.1,0-0.1,0.1c0,0.1,0.1,0.1,0.1,0.1
		c0.2,0,0.4,0,0.6-0.1c0.5-0.1,1.1-0.1,1.6-0.1s0.9,0,1.4,0.1C-13.3,33.7-13.2,33.7-13.1,33.6L-13.1,33.6z M-6.2,66.7
		c0.1-0.5,0.2-1,0.3-1.4c0.6-1.9,1.2-3.9,1.8-5.8c0.4-1.3,0.9-2.6,1.3-4c0-0.1,0-0.2-0.1-0.1c-0.2,0-0.3,0-0.5,0
		c-0.1,0-0.2,0.1-0.2,0.2c-0.5,1.5-1,3-1.5,4.5c-0.7,2.2-1.4,4.3-2.1,6.5c0,0,0,0.1-0.1,0.1c0.1-0.2,0.1-0.4,0.1-0.5
		c1-3.5,2.2-7,3.4-10.5c0.1-0.2,0.1-0.2-0.2-0.2c-1.3,0-2.6-0.1-3.9-0.3c-0.8-0.1-1.6-0.3-2.3-0.4c-0.4-0.1-0.9-0.2-1.3-0.4v0.1
		c0.1,0.5,0.1,1.1,0.2,1.6c0.2,1.3,0.3,2.6,0.5,4c0.1,1,0.2,2,0.3,3.1c0.1,0.8,0.2,1.6,0.3,2.4c0,0.4,0,0.8,0.1,1.1
		c0,0.4,0.1,0.8,0.3,1.1c0.1,0.2,0.3,0.4,0.6,0.4c0,0,0.1,0,0.1,0.1s-0.1,0-0.1,0c-0.4-0.1-0.7-0.3-0.8-0.7
		c-0.2-0.4-0.2-0.8-0.2-1.3c-0.1-1-0.2-2-0.3-3c-0.1-1-0.2-2-0.3-3c-0.1-1.3-0.3-2.6-0.4-3.9c-0.1-0.7-0.2-1.3-0.3-2
		c0-0.1,0-0.1-0.1-0.2c-0.1,0-0.1-0.1-0.1-0.2c0.1,0,0.1,0.1,0.2,0.1c-0.1-0.9-0.2-1.8-0.1-2.7c0.1,0.7,0.1,1.3,0.2,2
		c0,0.2,0.1,0.5,0.1,0.7c0,0.1,0.1,0.2,0.1,0.2c0.4,0.2,0.8,0.3,1.3,0.4c1.1,0.2,2.3,0.4,3.4,0.5c1,0.1,1.9,0.1,2.9,0.1
		c0.1,0,0.1,0,0.2-0.1c0.5-1.4,1-2.7,1.4-4.1c0-0.1,0-0.2-0.1-0.1c-2.3,0.2-4.6,0.1-6.9-0.3c-1-0.2-2-0.3-2.9-0.7
		c-0.2-0.1-0.4-0.2-0.6-0.3c-0.3-0.2-0.3-0.4,0-0.7c0.4-0.3,0.9-0.5,1.4-0.5c0.2,0,0.3,0,0.5,0c0,0.1-0.1,0-0.2,0.1
		c-0.5,0.1-0.9,0.2-1.4,0.4c-0.1,0.1-0.2,0.1-0.3,0.2c-0.2,0.1-0.2,0.3,0,0.4c0.2,0.2,0.5,0.3,0.8,0.4c1.1,0.3,2.2,0.5,3.3,0.6
		c1,0.1,2.1,0.2,3.1,0.3c1.1,0,2.1,0,3.2-0.1H-2c0-0.1,0.1-0.1,0.1-0.2s-0.1,0-0.2,0c-0.4,0-0.9,0.1-1.3,0.1c-0.1,0-0.1,0-0.2,0
		c0.3,0,0.6-0.1,0.8-0.1c0.3,0,0.5-0.1,0.8-0.1c0.1,0,0.1-0.1,0.1-0.2c0.2-0.7,0.4-1.4,0.7-2c0.2-0.5,0.4-1,0.6-1.5
		c0.1-0.2,0.2-0.4,0.3-0.7c0.2-0.3,0.4-0.5,0.6-0.8c0.1-0.1,0.3-0.2,0.5-0.3h0.1c0,0,0,0-0.1,0.1c-0.4,0.2-0.7,0.5-0.9,0.9
		c-0.5,0.8-0.9,1.8-1.2,2.7c-0.2,0.6-0.4,1.1-0.6,1.7c0.2,0,0.4-0.1,0.6-0.1c0.4-0.1,0.8-0.2,1.1-0.3c0.1-0.1,0.3-0.1,0.2-0.3l0,0
		c0,0,0,0,0.1,0c0.1,0.1,0.1,0.2,0,0.3s-0.2,0.2-0.3,0.2c-0.5,0.2-1.1,0.3-1.7,0.4H-2c0,0.1-0.1,0.1-0.1,0.2s0.1,0,0.2,0
		c0.6-0.1,1.3-0.2,1.9-0.4c0.3-0.1,0.5-0.2,0.7-0.4c0.2-0.2,0.2-0.3,0-0.5c-0.1-0.1-0.2-0.1-0.3-0.2c-0.2-0.1-0.5-0.2-0.7-0.2
		c-0.1,0-0.1,0-0.2,0.1c0,0.1-0.1,0.2-0.2,0.3c0-0.1,0-0.2,0.1-0.3c0-0.1,0.1-0.1,0-0.2l0,0c0.2,0,0.1-0.1,0.2-0.2
		c0.2-0.5,0.5-1,0.8-1.5c0.1-0.2,0.3-0.5,0.6-0.5c0.1,0,0.1-0.1,0.1-0.2c0.1,0.1,0.1,0.1,0,0.2c0,0.1-0.1,0-0.1,0
		c-0.1,0-0.1,0-0.2,0.1c-0.3,0.2-0.4,0.4-0.5,0.7c-0.2,0.4-0.4,0.9-0.6,1.3c0,0.1,0,0.1,0.1,0.1c0.3,0.1,0.6,0.1,0.9,0.3
		c0.2,0.1,0.4,0.2,0.4,0.4c0,0.2-0.1,0.4-0.3,0.5c-0.4,0.3-0.9,0.4-1.4,0.5c-0.4,0.1-0.9,0.2-1.3,0.2c-0.1,0-0.1,0-0.2,0.1
		c-0.5,1.4-1,2.7-1.4,4.1c0,0.1,0,0.1,0.1,0.1c0.2,0,0.3,0,0.5,0c0.1,0,0.2-0.1,0.2-0.1c0.3-0.8,0.5-1.5,0.8-2.3
		c0.2-0.5,0.4-0.9,0.6-1.4c0,0.1,0,0.2-0.1,0.3c-0.1,0.4-0.3,0.9-0.4,1.3c-0.1,0.2-0.1,0.2,0.1,0.2s0.4,0.1,0.6,0.2
		c-0.3,0-0.5-0.1-0.7-0.1c-0.1,0-0.1,0-0.2,0.1c-0.2,0.6-0.4,1.2-0.6,1.8c0,0.1,0,0.1,0.1,0.1c0.7-0.1,1.4-0.3,2.1-0.7
		c0,0,0.1,0,0.1-0.1c0.3-0.2,0.4-0.4,0.1-0.7C0,53.9,0.1,54.1,0,54.3c-0.1,0.1-0.2,0.2-0.3,0.3c-0.5,0.4-1.1,0.6-1.8,0.7
		c-0.2,0-0.3,0.1-0.5,0.1c-0.1,0-0.2,0.1-0.2,0.2c-0.4,1.2-0.8,2.3-1.2,3.5c-0.7,2-1.3,4-1.9,6C-5.9,65.5-6.1,66.1-6.2,66.7z
		 M-20.4,64.4c0-0.1,0-0.1,0-0.2c0-0.1,0-0.3,0.1-0.4c0.1-0.4,0.1-0.8,0-1.2c0-1.2-0.1-2.4-0.1-3.6c0-1.3-0.1-2.5-0.1-3.8
		c0-0.4,0-0.9,0-1.3c0-0.1,0-0.2,0-0.2c-0.2-0.5-0.2-1-0.1-1.6c0.1-0.3,0.2-0.6,0.4-0.9c0.1-0.2,0.1-0.5,0.1-0.7
		c0.1-0.5,0.2-1,0.4-1.5c0,0,0-0.1,0.1-0.1c0.1,0,0,0.1,0,0.1c-0.1,0.3-0.2,0.6-0.2,0.9c-0.1,0.3-0.1,0.5-0.1,0.8
		c0,0.1,0,0.1,0.1,0.1c0.3-0.1,0.6,0,0.9,0c0.3,0,0.6,0.2,0.8,0.4c0.1,0,0.1,0.1,0.2,0.1l0,0c0,0.1,0.1,0.2,0.2,0.2
		c0.2,0.2,0.5,0.4,0.7,0.5c0.3,0.2,0.6,0.3,1,0.3c0.9,0.1,1.7-0.2,2.5-0.6c0.2-0.1,0.4-0.2,0.6-0.2c0,0,0.1-0.1,0.1,0v0.1l0,0
		c-0.5,0.2-1.1,0.5-1.6,0.7c-0.5,0.1-1,0.2-1.5,0.1c-0.6-0.1-1.2-0.4-1.7-0.9c-0.4-0.4-0.9-0.7-1.5-0.7c-0.2,0-0.3,0-0.5-0.1
		c-0.1,0-0.1,0-0.1,0.1c0,0.2-0.1,0.3-0.2,0.4c0,0-0.1,0-0.1,0.1l0,0c0.3-0.2,0.6-0.1,0.9,0c0.4,0.2,0.9,0.4,1.3,0.7
		c0.4,0.3,0.9,0.6,1.3,0.8c0.8,0.4,1.6,0.3,2.4,0c0.4-0.2,0.9-0.4,1.3-0.7c0.1-0.1,0.2-0.1,0.3-0.2c0.1,0.1,0,0.2-0.1,0.3
		c-0.4,0.2-0.8,0.5-1.2,0.7c-1.1,0.5-2.3,0.5-3.3-0.2c-0.5-0.4-1.1-0.8-1.7-1.1c-0.2-0.1-0.4-0.2-0.6-0.3s-0.5,0.1-0.6,0.3
		c-0.2,0.5-0.2,0.9-0.1,1.4c0.2,1.1,1,1.7,2,2c0.8,0.3,1.6,0.4,2.4,0.4c1.2,0,2.5,0,3.7-0.2c0,0,0.1-0.1,0.1,0c0,0.1,0,0.1-0.1,0.2
		c-0.6,0.1-1.1,0.2-1.7,0.2c-1.1,0.1-2.1,0.1-3.2-0.1c-0.6-0.1-1.2-0.2-1.7-0.5s-1-0.6-1.3-1.2c-0.1,0.1,0,0.2,0,0.2
		c0,1.1,0,2.3,0.1,3.4c0.1,1.5,0.1,3.1,0.1,4.7c0,0.4,0.1,0.8,0,1.2s0,0.6,0.2,0.9c0.3,0.6,0.9,1,1.5,1.2c0.8,0.4,1.7,0.5,2.5,0.6
		c1.2,0.1,2.4,0,3.5-0.4c0.3-0.1,0.6-0.2,0.9-0.4c0,0,0.1-0.1,0.1,0c0.1,0.1,0,0.2-0.1,0.3c-0.7,0.4-1.5,0.6-2.3,0.7
		c-1.6,0.2-3.1,0.1-4.6-0.5c-0.5-0.2-1-0.5-1.3-0.9c-0.6,0.2-0.7,0.1-0.8,0c0.1,0.2,0.2,0.3,0.3,0.5c0.5,0.7,1.2,1.1,2,1.3
		c1.1,0.3,2.2,0.4,3.3,0.3c1-0.1,2-0.2,2.9-0.6c0,0,0.1,0,0.1-0.1c0,0,0.1-0.1,0.1,0v0.1l0,0c-0.1,0.1-0.2,0.1-0.3,0.2
		c-0.8,0.3-1.6,0.5-2.4,0.5c-1.2,0.1-2.3,0.1-3.5-0.2c-0.9-0.2-1.7-0.7-2.3-1.5C-20.1,65.2-20.2,64.8-20.4,64.4L-20.4,64.4z
		 M-20.4,64.4L-20.4,64.4c0,0.9,0,1.7,0.2,2.6c0.1,0.3,0.2,0.5,0.3,0.7c0.4,0.5,0.9,1.1,1.4,1.5c0.5,0.4,1.1,0.7,1.7,0.8
		c1.5,0.3,2.9,0.1,4.3-0.5c0.5-0.2,0.9-0.5,1.3-0.9c0,0,0.1-0.1,0.1,0c0.1,0.1,0,0.1,0,0.2c-0.6,0.6-1.4,1-2.2,1.2
		c-1.1,0.3-2.3,0.4-3.5,0.2c-1-0.2-1.8-0.7-2.4-1.4c-0.3-0.3-0.5-0.7-0.8-1c-0.1-0.1-0.2-0.3-0.3-0.5c0-0.1-0.1-0.2-0.1-0.3
		c-0.1-0.2-0.2-0.5-0.2-0.7c0-0.5-0.1-1,0-1.5C-20.5,64.6-20.5,64.5-20.4,64.4L-20.4,64.4z M-7.8,70.4c-0.2,0-0.4,0-0.7-0.1
		c-0.4-0.1-0.9-0.2-1.3-0.4c-0.7-0.3-1.1-0.8-1.1-1.5c0-0.8-0.1-1.5-0.2-2.3c-0.1-0.5-0.1-1.1-0.2-1.6c-0.2-1.6-0.3-3.3-0.5-4.9
		c-0.1-1.2-0.2-2.3-0.3-3.5c0-0.2,0-0.4,0-0.5C-12,56-12,56.4-12,56.9c0.2,2.2,0.4,4.3,0.7,6.4c0.1,0.7,0.2,1.4,0.3,2.1
		c0.1,1,0.2,2,0.3,3c0,0.7,0.4,1.2,1,1.4c0.3,0.1,0.7,0.2,1,0.3C-8.3,70.2-8,70.2-7.8,70.4L-7.8,70.4z M-15.2,49.8
		c-0.9-0.1-1.8,0-2.7-0.2c-0.4-0.1-0.8-0.2-1.2-0.3c-0.1-0.1-0.3-0.2-0.4-0.3c-0.1-0.1-0.2-0.2-0.2-0.4c0-0.3-0.2-0.6-0.3-0.8
		c-0.2-0.5-0.5-0.9-0.7-1.4c-0.1-0.4-0.2-0.8-0.3-1.3c0-0.1,0-0.2,0.1-0.3c0-0.1,0.1-0.1,0.2-0.1l0,0c0.1,0.1,0,0.1,0,0.1
		c-0.1,0.1-0.1,0.3-0.1,0.4c0,0.3,0.1,0.5,0.2,0.8c0.2,0.5,0.5,0.9,0.7,1.4c0.2,0.3,0.4,0.7,0.4,1.1c0,0.1,0,0.2,0,0.2
		c-0.1,0,0,0.1,0,0.1c0.2,0.2,0.4,0.4,0.7,0.5c0.5,0.2,1.1,0.3,1.6,0.3c1.1,0.1,2.3,0.1,3.4,0.1c0.2,0,0.3,0,0.5,0
		c0.1,0,0.1,0,0.1,0.1c0,0.1-0.1,0.1-0.1,0.1c-0.6,0-1.1,0-1.7,0C-15,49.9-15.1,49.9-15.2,49.8L-15.2,49.8z M0.5,56
		c0,0.2,0,0.5,0,0.7c-0.1,1.5-0.2,3-0.4,4.5c-0.1,1.1-0.3,2.3-0.3,3.4c0,0.7-0.1,1.3-0.2,2c-0.1,0.5-0.1,1-0.2,1.5
		c0,0,0,0.1-0.1,0.1c0-0.2,0-0.3,0-0.5c0.1-0.7,0.1-1.5,0.2-2.2c0.1-1.4,0.3-2.9,0.5-4.3c0.2-1.3,0.3-2.6,0.3-3.8
		c0-0.4,0.1-0.8,0.1-1.3C0.4,56.1,0.4,56,0.5,56L0.5,56z M-6,68.7c0.3,0,0.6,0,0.9,0c0.5,0,1,0,1.5-0.1c0.9-0.2,1.6-0.7,1.8-1.7
		c0.2-0.6,0.2-1.2,0.3-1.9c0.1-0.9,0.2-1.8,0.3-2.8c0.2-1.4,0.4-2.8,0.4-4.2c0-0.2,0-0.4,0-0.7c0,0.5,0,0.9,0,1.4
		c-0.1,1.7-0.4,3.5-0.6,5.2c-0.1,0.7-0.1,1.4-0.2,2.1c0,0.3-0.1,0.7-0.2,1c-0.2,0.8-0.7,1.3-1.5,1.6C-4,68.8-5,68.9-6,68.7
		C-5.9,68.7-5.9,68.7-6,68.7L-6,68.7z M-9.8,48.4c2.3-0.3,4.7-0.2,6.9,0.2C-5.1,48.3-7.4,48.1-9.8,48.4L-9.8,48.4z M-3.5,52.9
		c-0.3,0-0.5,0-0.8,0c-1.5-0.1-3,0-4.4,0.1c-0.7,0.1-1.4,0.2-2.1,0.4h-0.1c0.4-0.2,0.9-0.3,1.3-0.3c1.5-0.2,3-0.2,4.5-0.2
		C-4.6,52.8-4.1,52.8-3.5,52.9C-3.6,52.8-3.5,52.8-3.5,52.9L-3.5,52.9z M-12.8,49.9c0.1,0.6,0.2,1.1,0.3,1.7c0.1,1,0.2,2,0.2,3
		c0,0.3,0.1,0.4,0.4,0.5c0.1,0,0.2,0,0.2,0.1c-0.2,0.1-0.6-0.1-0.6-0.4c0-0.4-0.1-0.9-0.1-1.3c-0.1-1.2-0.1-2.4-0.3-3.6
		C-12.8,50-12.8,50-12.8,49.9L-12.8,49.9z M2.4,44.9c0.4,0,0.8,0,1.2,0c0.6,0,1.2-0.1,1.8-0.1c0.2,0,0.3,0,0.5,0
		c0.2,0.1,0.4,0.3,0.5,0.5c0,0.2-0.1,0.5-0.3,0.6c0,0,0,0-0.1,0c0-0.1,0.1-0.1,0.1-0.2c0.1-0.2,0.2-0.3,0.1-0.5
		c-0.1-0.2-0.3-0.3-0.5-0.3c-0.5,0-0.9,0.1-1.3,0.1C3.8,45,3.1,45,2.4,44.9L2.4,44.9z M2.2,46c0.1-0.2,0-0.5,0.1-0.7
		c0.1,0.2,0.1,0.3,0.1,0.5c0,0.1,0,0.3-0.1,0.3S2.1,46,2.1,45.9c-0.1-0.2-0.2-0.3-0.2-0.5c0,0,0-0.1-0.1-0.1c0,0.1,0,0.2,0,0.4
		s0,0.4-0.1,0.5c0,0.1-0.1,0.1-0.1,0.1c-0.1,0-0.1,0-0.1-0.1c-0.1-0.3-0.2-0.6-0.2-0.9c0.1,0,0.1,0.1,0.1,0.1v0.1
		c0.1,0.2,0.1,0.4,0.2,0.6c0,0,0,0.1,0.1,0.1s0.1-0.1,0.1-0.1c0-0.1,0-0.3,0-0.4c0-0.2,0-0.3,0-0.5c0,0,0-0.1,0.1-0.1S2,45.2,2,45.2
		C2.1,45.4,2.1,45.7,2.2,46C2.1,45.9,2.2,45.9,2.2,46L2.2,46z M1.1,51.1c-0.1,1.5-0.2,3-0.5,4.4C0.9,54.1,1,52.6,1.1,51.1z
		 M-12.2,49.5c0-0.1,0.1-0.2,0.3-0.2c0.5-0.2,1-0.3,1.5-0.4c0.8-0.1,1.5-0.2,2.3-0.3c0.1,0,0.3,0,0.4,0c-0.7,0-1.3,0.1-1.9,0.2
		c-0.7,0.1-1.3,0.2-1.9,0.4C-11.8,49.2-12,49.3-12.2,49.5L-12.2,49.5z M-2,70.1c-0.2,0.1-0.4,0.2-0.6,0.2c-0.5,0.1-1,0.1-1.5,0.1
		s-1.1,0-1.7,0C-4.5,70.4-3.2,70.4-2,70.1L-2,70.1z M-20.2,52.8c0.3,0.2,0.6,0.4,0.9,0.5c0.2,0.1,0.4,0.1,0.6,0.2
		c0.1,0,0.1,0,0.1-0.1c0-0.2,0.1-0.4,0.1-0.7c0-0.1,0-0.1,0-0.1l0,0l-0.2,1.2c0-0.2-0.2-0.2-0.3-0.3c-0.3-0.1-0.6-0.1-0.9-0.3
		C-20,53.1-20.1,53-20.2,52.8L-20.2,52.8z M4.9,45.9L2.6,46v-0.1C3.4,45.9,4.1,45.8,4.9,45.9L4.9,45.9z M-12.6,67.6
		c-0.6,0.2-1.3,0.3-2,0.3c0.3,0,0.7-0.1,1-0.1C-13.3,67.6-12.9,67.6-12.6,67.6L-12.6,67.6z M0.1,55.9C0.1,56,0.1,56,0.1,55.9
		c-0.5,0.2-0.9,0.4-1.2,0.5c-0.2,0.1-0.4,0.1-0.6,0.1c0.3,0,0.7-0.1,1-0.2S-0.2,56.1,0.1,55.9C0,55.9,0.1,55.9,0.1,55.9L0.1,55.9z
		 M-16.6,47.8c0.6-0.2,1.2-0.1,1.8-0.2C-15.4,47.7-16,47.6-16.6,47.8L-16.6,47.8z M-20.1,66.2c0.5,0.3,0.8,0.8,1.3,1
		C-19.4,67-19.7,66.5-20.1,66.2L-20.1,66.2z M-14,47.7c0.5,0,1.1,0,1.6,0.2C-12.9,47.8-13.5,47.8-14,47.7L-14,47.7z M-7.9,65.1
		c-0.2,0-0.3,0.2-0.2,0.2c0.1,0.1,0.2,0.1,0.3,0.1C-7.8,65.4-7.8,65.4-7.9,65.1c0.2,0,0.3,0.2,0.2,0.3c-0.1,0.1-0.2,0.1-0.3,0.1
		h-0.1c-0.1,0-0.2-0.1-0.1-0.2C-8.1,65-8.1,65-7.9,65.1L-7.9,65.1z M-19.2,48.4c0.5-0.3,1.1-0.5,1.7-0.6C-18,48-18.6,48.1-19.2,48.4
		L-19.2,48.4z M-7.1,67.2c0.3,0.3,0.6,0.3,1,0.2C-6.4,67.7-7.1,67.6-7.1,67.2L-7.1,67.2z M-11.2,67.9c-0.4,0.3-0.9,0.6-1.4,0.5
		c0.2-0.1,0.5-0.1,0.7-0.2C-11.7,68.1-11.5,68-11.2,67.9L-11.2,67.9z M-17.8,52.9c0,0.3,0,0.6-0.1,0.9
		C-17.9,53.5-17.8,53.2-17.8,52.9z M-12.1,67.3c0.3-0.1,0.5-0.3,0.8-0.4C-11.4,67.1-11.9,67.3-12.1,67.3z M-7.4,63.4
		c-0.1,0.1-0.3,0-0.3,0.2c0,0.1,0.1,0.1,0.2,0.2c-0.1,0.1-0.2,0-0.2-0.1c-0.1-0.1,0-0.2,0-0.2C-7.6,63.3-7.5,63.4-7.4,63.4
		L-7.4,63.4z M-11.3,48.3c-0.3,0-0.5-0.1-0.7-0.3C-11.8,48.1-11.5,48.2-11.3,48.3z M-16.8,54.1l0.2-0.8
		C-16.6,53.6-16.7,53.9-16.8,54.1L-16.8,54.1z M-16.9,67.8c-0.3,0-0.5,0-0.8-0.1C-17.4,67.7-17.1,67.7-16.9,67.8z M-18.3,54.5
		c-0.2,0.1-0.5,0-0.7-0.1C-18.8,54.4-18.5,54.5-18.3,54.5L-18.3,54.5z M-18.4,50.9c0-0.2,0.1-0.5,0.2-0.7c0,0.1-0.1,0.2-0.1,0.3
		C-18.3,50.7-18.4,50.8-18.4,50.9L-18.4,50.9z M-17.9,51.3c-0.1-0.1,0-0.1,0-0.2s0.1-0.3,0.1-0.4C-17.8,50.9-17.8,51.1-17.9,51.3
		L-17.9,51.3z M-17.4,53.9l0.1-0.6C-17.3,53.5-17.3,53.7-17.4,53.9L-17.4,53.9z M0.1,55.9l0.4-0.3C0.4,55.8,0.3,55.9,0.1,55.9
		L0.1,55.9z M-15.6,67.9c-0.1,0-0.2,0-0.4,0C-15.8,67.8-15.7,67.9-15.6,67.9z M-16.3,36.1c-0.1,0-0.2,0-0.2,0s-0.1,0-0.1-0.1
		s0-0.2-0.1-0.2l0,0c0.1,0,0.1-0.1,0.1-0.1c0-0.1-0.1,0-0.1,0s0,0-0.1,0c0.1-0.1,0.3-0.1,0.4-0.1c0,0,0,0,0,0.1
		C-16.3,35.8-16.3,35.9-16.3,36.1L-16.3,36.1z M-16.4,35.7C-16.4,35.6-16.4,35.6-16.4,35.7c-0.1-0.1-0.2,0-0.1,0
		C-16.5,35.8-16.5,35.8-16.4,35.7C-16.4,35.8-16.4,35.7-16.4,35.7L-16.4,35.7z M-17,39.5c-0.1,0.4-0.1,0.8-0.1,1.2
		C-17.2,40.5-17.1,39.9-17,39.5L-17,39.5z M-12.9,40.2c-0.3,0.1-0.6,0.3-0.9,0.5C-13.6,40.5-13.3,40.3-12.9,40.2z M-18.6,40.3
		c0-0.3,0-0.6,0.1-0.8l0,0L-18.6,40.3L-18.6,40.3z M-12.2,40.3c0.2-0.1,0.4-0.2,0.6-0.1L-12.2,40.3z M-13.9,36l0.1-0.5l0,0
		C-13.8,35.7-13.7,35.9-13.9,36z M-16.1,35.7c0,0.1,0,0.3,0,0.4C-16.2,36-16.1,35.8-16.1,35.7L-16.1,35.7z M-15.8,35.6
		c0,0.1,0,0.2,0,0.3C-15.9,35.9-15.9,35.7-15.8,35.6z M-11.4,43.9c-0.4,0-0.7,0-1.1-0.1C-12.1,43.8-11.7,43.8-11.4,43.9L-11.4,43.9z
		 M-19.7,44.3c0-0.3,0-0.7,0.1-1c-0.1,0.2-0.1,0.3-0.1,0.5S-19.7,44.2-19.7,44.3L-19.7,44.3z M-18.4,44.1v0.8
		C-18.5,44.6-18.4,44.3-18.4,44.1L-18.4,44.1z M-17.5,44.2c0,0.2,0,0.4,0,0.6C-17.6,44.7-17.6,44.5-17.5,44.2L-17.5,44.2z
		 M-19.3,43.8c0,0.2,0,0.4,0,0.7C-19.4,44.3-19.3,44.1-19.3,43.8z M-10.6,44c0.2,0,0.4,0.1,0.6,0.3L-10.6,44z M-16.9,44.2
		c0,0.1,0,0.3-0.1,0.4L-16.9,44.2z M-16.7,42.2c0.1,0.3,0.1,0.8,0,1.1C-16.7,43-16.6,42.6-16.7,42.2L-16.7,42.2z M-18.1,41.7
		c0,0.3-0.1,0.6-0.1,0.9C-18.3,42.4-18.2,41.9-18.1,41.7z M-19,42.4c0.1-0.3,0.2-0.5,0.2-0.8C-18.8,41.8-18.9,42.2-19,42.4z
		 M-11.7,41.8c0.2-0.1,0.4-0.1,0.7-0.1C-11.3,41.7-11.5,41.8-11.7,41.8z M-12.9,42c0.2-0.1,0.3-0.2,0.5-0.2
		C-12.5,42-12.7,42-12.9,42z M-13.2,34.8L-13.2,34.8c0-0.3,0-0.4,0.1-0.6C-13.1,34.4-13.1,34.6-13.2,34.8z M-14.7,32.7
		c0-0.1,0-0.3,0-0.4v-0.1c0,0,0.1,0,0.1,0.1c0,0.3,0.1,0.5,0.1,0.8c0,0.1,0,0.2-0.1,0.2s-0.1-0.1-0.1-0.2
		C-14.7,33-14.7,32.8-14.7,32.7L-14.7,32.7z M-16.8,32.5c0.1,0.3,0.1,0.5,0.1,0.8v0.1c0,0-0.1,0-0.1-0.1
		C-16.8,33-16.9,32.7-16.8,32.5L-16.8,32.5z"/>
	<path id="XMLID_78_" class="st2" d="M-14.1,47.7c0.5,0.1,1,0.1,1.6,0.2C-13,47.7-13.5,47.7-14.1,47.7z"/>
	<path id="XMLID_77_" class="st2" d="M-11.4,48.3c-0.2-0.1-0.5-0.2-0.7-0.3C-11.9,48.2-11.6,48.3-11.4,48.3z"/>
	<path id="XMLID_76_" class="st2" d="M-11.5,43.9L-11.5,43.9c-0.4,0-0.7-0.1-1.1-0.1C-12.2,43.8-11.8,43.9-11.5,43.9z"/>
	<path id="XMLID_175_" class="st2" d="M-9.5,44.6c0.2-0.1,0.3-0.1,0.2-0.3c-0.1-0.2-0.1-0.3-0.1-0.5c0-0.1,0-0.3-0.2-0.3
		c-0.1,0,0-0.1,0-0.1c0-0.1,0.2-0.2,0.1-0.3c-0.1-0.5-0.2-0.9-0.3-1.4c0-0.1,0-0.1-0.1-0.1c0-0.1,0.1-0.1,0-0.1s-0.1-0.1-0.1-0.2
		c0-0.2,0-0.4,0-0.6c-0.2-0.9-0.5-1.8-1.2-2.5c-0.6-0.6-1.3-1.2-1.9-1.8c0,0-0.1-0.1-0.1-0.2c0.1-0.2,0-0.4,0-0.5
		c0-0.3,0-0.3,0.3-0.2c0.1,0,0.1,0,0.2-0.1c0.1-0.5,0-0.9,0-1.3c0-0.1,0-0.2-0.2-0.2c-0.1,0-0.1-0.1-0.1-0.1c0-0.1,0.1-0.1,0.1-0.1
		c0.1,0,0.2,0,0.1-0.1v-0.1c0-0.2,0-0.5,0-0.7c-0.2-0.7-0.3-0.7-0.8-0.8c-0.7-0.1-1.4,0-2.1,0c-0.4,0-0.9,0-1.3,0.1
		c-0.3,0.1-0.4,0.2-0.4,0.5c-0.1,0.3,0,0.7,0,1c0,0.1,0,0.1,0.1,0.1h0.1c0,0,0,0.1-0.1,0.1c-0.1,0.1-0.2,0-0.2,0.2
		c0,0.3-0.1,0.7-0.1,1s0,0.3,0.4,0.4c0.1,0,0.2,0,0.1,0.2c0,0.2,0,0.5,0,0.7c0,0.1,0,0.2-0.1,0.2c-0.4,0.3-0.8,0.6-1.2,0.9
		c-0.5,0.5-1,0.9-1.4,1.5c-0.2,0.4-0.4,1-0.5,1.6c0,0.3-0.1,0.5-0.1,0.8s-0.1,0.5-0.2,0.8c0,0.2,0,0.3-0.1,0.5c0,0.2-0.1,0.3,0,0.4
		c0.1,0.3-0.2,0.2-0.2,0.3l0,0c0,0.3-0.1,0.6-0.1,1c0,0.3,0.1,0.5,0.4,0.6c0.2,0,0.4,0.1,0.6,0.1c0.6,0.1,1.1,0.1,1.7,0.2
		c0.9,0.1,1.7,0.2,2.6,0.2c1.2,0,2.4-0.1,3.6-0.2c0.8-0.1,1.6-0.2,2.3-0.5h0.1c0.2,0.1,0.3,0.2,0.3,0.4c0,0.2,0,0.4-0.1,0.6
		c-0.2,0.6-0.5,1.2-0.8,1.8c-0.1,0.2-0.2,0.4-0.3,0.5c0.1,0,0.2,0,0.3-0.1c0.2-0.5,0.5-1,0.7-1.5c0.1-0.4,0.3-0.8,0.3-1.2
		C-9.1,45-9.2,44.8-9.5,44.6z M-17.3,33.5c-0.1-0.3-0.1-0.7,0-1c0-0.1,0.2-0.2,0.3-0.2c1.1-0.1,2.3-0.2,3.4-0.1
		c0.4,0.1,0.4,0.1,0.5,0.5c0,0.2,0.1,0.4,0,0.6c0,0.1,0,0.2-0.1,0.2s0-0.1,0-0.2c0-0.3,0-0.5-0.1-0.8c0,0,0-0.1-0.1-0.1l0,0
		l-0.1,0.3l0,0c0-0.1-0.1-0.2-0.1-0.3c0,0,0-0.1-0.1-0.1s-0.1,0-0.1,0.1c0,0.3,0,0.6-0.1,0.9v0.1c0,0-0.1,0-0.1-0.1
		c0-0.2,0-0.3,0-0.5s0-0.4-0.1-0.6c0,0.4-0.1,0.7-0.1,1c0,0.1,0,0.1-0.1,0.1C-14,33-14,32.7-14,32.4c0,0,0-0.1-0.1-0.1
		s-0.1,0.1-0.1,0.1c0,0.2-0.1,0.4-0.1,0.5c-0.1-0.2,0-0.5-0.1-0.7c-0.1,0.4-0.1,0.7-0.1,1.1H-15c-0.1,0-0.1,0-0.1-0.1
		c0-0.3,0-0.5-0.1-0.7c0,0,0-0.1-0.1-0.1s0,0.1,0,0.1c0,0.3,0,0.5,0,0.8c-0.2,0-0.2,0-0.3-0.2c0-0.2,0-0.5-0.1-0.8
		c-0.1,0.1-0.1,0.2-0.1,0.3c0,0.2,0,0.4,0,0.6v0.1c-0.1,0-0.1-0.1-0.1-0.1c0-0.2,0-0.4,0-0.6v-0.1c0,0,0-0.1-0.1-0.1
		c-0.1,0-0.1,0.1-0.1,0.1c0,0.2,0,0.4,0,0.7c0,0.1,0,0.1-0.1,0.1c-0.1,0-0.1,0-0.1-0.1c0-0.2,0-0.4-0.1-0.6c0-0.1,0-0.2-0.1-0.2
		c0,0.3-0.1,0.6,0,0.9c0,0,0.1,0.1,0,0.1c-0.1,0-0.2,0.1-0.2,0c-0.1,0,0-0.1,0-0.1c0.1-0.3,0-0.6-0.1-0.8c-0.1,0.3-0.1,0.5-0.1,0.8
		c0,0.1,0.1,0.2,0,0.2C-17,33.6-17.1,33.6-17.3,33.5L-17.3,33.5c0.1-0.2,0-0.5,0-0.7c0-0.1,0-0.1-0.1-0.1c-0.1,0,0,0.1,0,0.1
		C-17.4,33-17.4,33.3-17.3,33.5C-17.1,33.5-17.1,33.5-17.3,33.5C-17.2,33.5-17.3,33.5-17.3,33.5z M-13.2,33.6c0,0.1-0.1,0.1-0.2,0.1
		c-0.5,0-0.9-0.1-1.4-0.1s-1.1,0-1.6,0.1c-0.2,0-0.4,0-0.6,0.1c-0.1,0-0.1,0-0.1-0.1c0-0.1,0.1-0.1,0.1-0.1c0.3-0.1,0.7-0.1,1-0.1
		c0.8-0.1,1.5,0.1,2.3,0.1c0.1,0,0.2,0,0.3,0.1C-13.3,33.6-13.3,33.6-13.2,33.6L-13.2,33.6z M-17.3,35.2c-0.1,0-0.1,0-0.1-0.1
		c0-0.3,0-0.7,0-1c0-0.1,0-0.2,0.2-0.3c0.2-0.1,0.3-0.1,0.5,0c0.3,0,0.7-0.1,1-0.1c0.5,0,0.9,0,1.4,0c0.3,0,0.6,0.1,0.9,0.1
		c0.1,0,0.2,0,0.3,0.1L-13,34c0,0.4,0,0.8,0,1.2c0,0.1,0,0.1-0.1,0.1c-0.4-0.1-0.7-0.1-1.1-0.1l0,0c-0.6,0-1.1,0-1.7,0
		C-16.3,35.2-16.8,35.2-17.3,35.2z M-19.1,38.1c0.5-0.5,1-0.9,1.6-1.4c0.2-0.1,0.3-0.3,0.5-0.4c0.1,0,0.1-0.1,0.1-0.2
		c0-0.2,0-0.5,0-0.7c0-0.1,0-0.1,0.1-0.1c1,0,2.1,0,3.1,0c0.3,0,0.3,0,0.4,0.3c0,0.1,0,0.1,0,0.2c0,0.2-0.1,0.3,0,0.4
		c0.1,0.1,0.2,0.2,0.3,0.3c0.3,0.4,0.7,0.8,1.1,1.1c0.5,0.4,0.9,0.8,1.2,1.4c0.3,0.5,0.4,1.1,0.5,1.7l0,0c-0.3-0.2-0.5-0.3-0.8-0.4
		c-0.6-0.2-1.2-0.2-1.8,0c-0.4,0.2-0.8,0.4-1.2,0.6c-0.4,0.2-0.8,0.4-1.2,0.4c-0.5,0.1-1-0.1-1.5-0.3c0,0-0.1,0-0.1-0.1
		c0,0,0,0-0.1,0c0,0,0,0-0.1,0c-0.3-0.2-0.6-0.3-0.9-0.5l-0.1-0.1c0,0,0,0-0.1,0v0.1c-0.8-0.4-1.6-0.2-2.3,0.2
		C-20,39.8-19.8,38.9-19.1,38.1z M-20.1,40.9c0.3-0.1,0.6-0.3,0.9-0.4c0.1,0,0.2-0.1,0.3-0.1l0,0c0.4,0,0.7,0.1,0.9,0.3
		c0.3,0.1,0.5,0.3,0.8,0.5c1,0.6,1.9,0.6,2.9,0.1c0.4-0.2,0.8-0.4,1.2-0.6c1-0.5,1.8-0.2,2.7,0.3c0.1,0,0.1,0.1,0.1,0.2
		c0,0.1-0.1,0-0.1,0c-0.2-0.1-0.4-0.2-0.5-0.3c-0.3-0.2-0.7-0.2-1.1-0.1c-0.3,0.1-0.7,0.2-1,0.4c-0.9,0.4-1.7,0.7-2.7,0.6
		c-0.4,0-0.8-0.2-1.2-0.4c-0.5-0.2-1-0.4-1.6-0.6c-0.5,0-1.1,0-1.6,0.4c-0.1,0.1-0.1,0-0.1,0C-20.3,41-20.2,40.9-20.1,40.9z
		 M-20.4,41.5c0-0.1,0.1-0.2,0.2-0.2c0.6-0.3,1.2-0.5,1.8-0.3c0.5,0.1,1,0.4,1.5,0.6c0.6,0.2,1.1,0.4,1.7,0.4c0.6,0,1.2-0.2,1.7-0.4
		c0.5-0.2,1-0.5,1.6-0.6c0.3-0.1,0.7,0,1,0.1c0.3,0.1,0.5,0.3,0.8,0.4c0.1,0,0.1,0.1,0.2,0.1c0,0.3,0.1,0.5,0.2,0.8
		c0,0.1,0.1,0.3,0.1,0.4c0,0.1,0.1,0.1,0,0.2c-0.1,0-0.1,0-0.1-0.1c-0.2-0.1-0.5-0.3-0.7-0.4c-0.4-0.2-0.8-0.1-1.2,0
		c-0.1,0-0.1,0-0.2,0c-0.4,0-0.7,0.2-1,0.3c-0.5,0.2-1.1,0.4-1.6,0.7c-0.5,0.2-1.1,0.3-1.6,0.3s-0.9-0.2-1.3-0.5v-0.1l0,0
		c0,0,0,0,0,0.1c-0.9-0.6-1.9-1-3-0.4C-20.4,42.3-20.4,41.9-20.4,41.5z M-20.4,42.8c0.4-0.1,0.8-0.2,1.3-0.2l0,0
		c0.3,0,0.6,0.1,0.9,0.3c0.2,0.1,0.4,0.2,0.6,0.4c1,0.7,2.1,0.8,3.2,0.4c0.5-0.2,1-0.4,1.5-0.6c0.6-0.3,1.2-0.5,1.9-0.5
		c0.4,0,0.7,0.1,1,0.3c0.1,0.1,0.2,0.2,0.4,0.3c0.1,0,0.2,0.1,0.1,0.2c-0.1,0.1-0.1,0-0.2-0.1c-0.4-0.3-0.9-0.4-1.4-0.4
		c-0.6,0-1.1,0.2-1.7,0.4c-0.4,0.2-0.8,0.3-1.2,0.5c-1.2,0.5-2.4,0.5-3.6-0.1c-0.4-0.2-0.8-0.4-1.2-0.6c-0.5-0.2-0.9-0.2-1.4-0.1
		C-20.3,43-20.3,43-20.4,42.8C-20.5,42.9-20.5,42.9-20.4,42.8z M-11.3,44.9c-1.4,0.2-2.7,0.3-3.8,0.3l0,0c-1.2,0-2.4,0-3.6-0.2
		c-0.4-0.1-0.8-0.1-1.3-0.1c-0.1,0-0.1,0-0.2,0c-0.5-0.1-0.7-0.3-0.6-0.9c0.1-0.7,0-0.6,0.7-0.8c0.5-0.1,0.9-0.1,1.3,0.1
		c0.2,0.1,0.5,0.2,0.7,0.4c1.3,0.8,2.6,0.8,3.9,0.3c0.3-0.1,0.5-0.3,0.8-0.4c0.5-0.2,0.9-0.4,1.4-0.5c0.3-0.1,0.7-0.1,1-0.1
		c0.2,0,0.5,0.1,0.7,0.2c0.3,0.2,0.5,0.3,0.7,0.5l0.1,0.1c0,0.2,0,0.3,0.1,0.5c0,0.1,0,0.2-0.1,0.2C-10.1,44.7-10.7,44.8-11.3,44.9z
		"/>
	<path id="XMLID_66_" class="st2" d="M-10.7,44l0.6,0.3C-10.2,44.1-10.4,44.1-10.7,44z"/>
	<path id="XMLID_65_" class="st2" d="M-10.5,48.9c-0.5,0.1-1,0.2-1.5,0.4c-0.1,0-0.2,0.1-0.3,0.2c0.1-0.2,0.3-0.2,0.6-0.3
		c0.6-0.2,1.3-0.3,1.9-0.4c0.6-0.1,1.3-0.1,1.9-0.2c-0.1,0-0.3-0.1-0.4,0C-9,48.6-9.7,48.7-10.5,48.9z"/>
	<path id="XMLID_64_" class="st2" d="M-12.3,40.3l0.6-0.1C-12,40.1-12.2,40.1-12.3,40.3z"/>
	<path id="XMLID_63_" class="st2" d="M-9.9,48.4c2.3-0.3,4.6-0.1,6.9,0.2C-5.2,48.2-7.6,48.1-9.9,48.4L-9.9,48.4z"/>
	<path id="XMLID_62_" class="st2" d="M-11.8,41.8c0.2,0,0.5,0,0.7-0.1C-11.4,41.7-11.6,41.7-11.8,41.8z"/>
	<path id="XMLID_61_" class="st2" d="M-13,42c0.2,0,0.4-0.1,0.5-0.2C-12.6,41.9-12.8,41.9-13,42z"/>
	<path id="XMLID_60_" class="st2" d="M-14,40.7c0.3-0.2,0.6-0.4,0.9-0.5C-13.4,40.3-13.7,40.5-14,40.7z"/>
	<path id="XMLID_59_" class="st2" d="M-0.7,57.3c0,0.3,0,0.5,0,0.7c-0.1,1.4-0.3,2.8-0.4,4.2C-1.2,63.1-1.3,64-1.4,65
		c-0.1,0.6-0.1,1.3-0.3,1.9c-0.2,1-0.9,1.5-1.8,1.7c-0.5,0.1-1,0.1-1.5,0.1c-0.3,0-0.6,0-0.9,0l0,0c0,0,0.1,0,0.1,0.1
		c0.9,0.1,1.8,0.1,2.7-0.2c0.8-0.2,1.3-0.8,1.5-1.6c0.1-0.3,0.1-0.6,0.2-1c0.1-0.7,0.1-1.4,0.2-2.1c0.2-1.7,0.5-3.5,0.6-5.2
		C-0.7,58.3-0.7,57.8-0.7,57.3z"/>
	<path id="XMLID_58_" class="st2" d="M-12.5,53.6c0,0.4,0.1,0.9,0.1,1.3c0,0.3,0.4,0.5,0.6,0.4c-0.1-0.1-0.1-0.1-0.2-0.1
		c-0.3-0.1-0.4-0.2-0.4-0.5c0-1-0.1-2-0.2-3c0-0.6-0.1-1.1-0.3-1.7v0.1C-12.7,51.2-12.6,52.4-12.5,53.6z"/>
	<path id="XMLID_57_" class="st2" d="M-9.7,69.8c-0.7-0.2-1-0.7-1-1.4c-0.1-1-0.1-2-0.3-3c-0.1-0.7-0.2-1.4-0.3-2.1
		c-0.2-2.1-0.4-4.3-0.7-6.4c0-0.4-0.1-0.8-0.1-1.3c0,0.2,0,0.4,0,0.5c0.1,1.2,0.2,2.3,0.3,3.5c0.2,1.6,0.3,3.3,0.5,4.9
		c0.1,0.5,0.1,1.1,0.2,1.6c0.1,0.8,0.1,1.5,0.2,2.3C-10.9,69.1-10.5,69.6-9.7,69.8c0.3,0.3,0.7,0.4,1.2,0.5c0.2,0,0.4,0.1,0.7,0.1
		l0,0c-0.3-0.1-0.6-0.1-0.9-0.2C-9,70-9.4,69.9-9.7,69.8z"/>
	<path id="XMLID_56_" class="st2" d="M2.2,46L2.2,46c-0.1,0-0.1-0.1-0.1-0.2c-0.1-0.2-0.2-0.5-0.2-0.7c0,0,0-0.1-0.1-0.1
		s-0.1,0.1-0.1,0.1c-0.1,0.2,0,0.3,0,0.5c0,0.1,0,0.3,0,0.4c0,0,0,0.1-0.1,0.1L1.5,46c-0.1-0.2-0.1-0.4-0.2-0.6v-0.1
		c0,0,0-0.1-0.1-0.1c0,0.3,0.1,0.6,0.2,0.9c0,0.1,0,0.1,0.1,0.1s0.1,0,0.1-0.1c0.1-0.2,0.1-0.4,0.1-0.5s0-0.2,0-0.4
		c0.1,0,0.1,0.1,0.1,0.1c0.1,0.2,0.1,0.4,0.2,0.5S2.1,46.1,2.2,46c0.1,0,0.1-0.2,0.1-0.3c0-0.2,0-0.3-0.1-0.5
		C2.2,45.5,2.3,45.8,2.2,46z"/>
	<path id="XMLID_55_" class="st2" d="M2.5,46l2.3-0.2v-0.1C4,45.8,3.3,45.9,2.5,46L2.5,46z"/>
	<path id="XMLID_54_" class="st2" d="M6.4,45.2c0-0.3-0.2-0.5-0.5-0.5c-0.2,0-0.3,0-0.5,0c-0.6,0.1-1.2,0.1-1.8,0.1
		c-0.4,0-0.8,0-1.2,0l0,0c0.7,0.1,1.4,0.1,2.1,0c0.5,0,0.9-0.1,1.3-0.1c0.2,0,0.4,0.1,0.5,0.3s0,0.4-0.1,0.5c0,0.1-0.1,0.1-0.1,0.2
		c0,0,0,0,0.1,0S6.4,45.4,6.4,45.2z"/>
	<path id="XMLID_53_" class="st2" d="M-8.8,52.9c1.5-0.1,3-0.2,4.4-0.1c0.3,0,0.5,0,0.8,0l0,0h-0.1c-0.5-0.1-1-0.1-1.5-0.1
		c-1.5,0-3,0-4.5,0.2c-0.4,0.1-0.9,0.1-1.3,0.3h0.1C-10.2,53.1-9.5,53-8.8,52.9z"/>
	<path id="XMLID_52_" class="st2" d="M-0.1,55.9c-0.3,0.1-0.5,0.2-0.8,0.3c-0.3,0.1-0.7,0.2-1,0.2c0.2,0,0.4,0,0.6-0.1
		C-0.8,56.3-0.4,56.1-0.1,55.9c0.1,0,0.1,0,0.1,0H-0.1z"/>
	<path id="XMLID_51_" class="st2" d="M0.4,56c-0.1,0.1,0,0.1,0,0.2c0,0.4-0.1,0.8-0.1,1.3c-0.1,1.3-0.2,2.6-0.3,3.8
		c-0.2,1.4-0.3,2.8-0.5,4.3c-0.1,0.7-0.1,1.5-0.2,2.2c0,0.2,0,0.3,0,0.5c0.1,0,0.1-0.1,0.1-0.1c0.1-0.5,0.2-1,0.2-1.5
		c0.1-0.7,0.1-1.3,0.2-2c0.1-1.2,0.2-2.3,0.3-3.4c0.2-1.5,0.3-3,0.4-4.5C0.4,56.5,0.4,56.2,0.4,56L0.4,56z"/>
	<path id="XMLID_50_" class="st2" d="M1.2,46.5c0,0.1,0,0.2-0.1,0.2c-0.3,0-0.5,0.3-0.6,0.5c-0.3,0.5-0.6,1-0.8,1.5
		c0,0.1,0,0.2-0.2,0.2l0,0c0.1,0.1,0,0.1,0,0.2s-0.1,0.2-0.1,0.3c0.1-0.1,0.1-0.2,0.2-0.3c0-0.1,0.1-0.1,0.2-0.1
		c0.2,0.1,0.5,0.2,0.7,0.2c0.1,0,0.2,0.1,0.3,0.2c0.2,0.2,0.2,0.3,0,0.5c-0.2,0.2-0.5,0.3-0.7,0.4c-0.6,0.2-1.3,0.3-1.9,0.4
		c-0.1,0-0.1,0.1-0.2,0c0-0.1,0-0.1,0.1-0.2c0-0.1,0.1,0,0.1,0c0.6-0.1,1.2-0.2,1.7-0.4c0.1,0,0.2-0.1,0.3-0.2
		c0.1-0.1,0.1-0.2,0-0.3c0,0,0,0-0.1,0l0,0c0.1,0.2-0.1,0.3-0.2,0.3c-0.4,0.2-0.7,0.3-1.1,0.3c-0.2,0-0.4,0.1-0.6,0.1
		c0.2-0.6,0.4-1.2,0.6-1.7c0.3-0.9,0.6-1.9,1.2-2.7c0.2-0.4,0.5-0.7,0.9-0.9c0,0,0.1,0,0.1-0.1c0-0.1-0.1,0-0.1,0
		C0.7,45,0.5,45,0.4,45.2c-0.2,0.2-0.5,0.5-0.6,0.8c-0.1,0.2-0.2,0.4-0.3,0.7c-0.2,0.5-0.5,1-0.6,1.5c-0.2,0.7-0.5,1.4-0.7,2
		c0,0.1,0,0.2-0.1,0.2c-0.3,0-0.5,0.1-0.8,0.1s-0.5,0.1-0.8,0.1c0.1,0,0.1,0,0.2,0c0.4,0,0.9-0.1,1.3-0.1c0.1,0,0.1-0.1,0.2,0
		c0,0.1,0,0.1-0.1,0.2H-2c-1.1,0.1-2.1,0.1-3.2,0.1c-1,0-2.1-0.1-3.1-0.3c-1.1-0.1-2.2-0.3-3.3-0.6c-0.3-0.1-0.6-0.2-0.8-0.4
		c-0.2-0.1-0.2-0.3,0-0.4c0.1-0.1,0.2-0.1,0.3-0.2c0.4-0.2,0.9-0.3,1.4-0.4c0.1,0,0.1,0,0.2-0.1c-0.2,0-0.3,0-0.5,0
		c-0.5,0.1-1,0.2-1.4,0.5c-0.3,0.2-0.2,0.5,0,0.7c0.2,0.1,0.4,0.2,0.6,0.3c0.9,0.3,1.8,0.5,2.8,0.6c2.3,0.3,4.6,0.5,6.9,0.3
		c0.1,0,0.1,0,0.1,0.1c-0.5,1.3-1,2.7-1.4,4.1c0,0.1-0.1,0.1-0.2,0.1c-1,0-2,0-2.9-0.1c-1.1-0.1-2.3-0.3-3.4-0.5
		c-0.4-0.1-0.9-0.2-1.3-0.4c-0.1,0-0.1-0.1-0.1-0.2c0-0.2,0-0.5-0.1-0.7c-0.1-0.7-0.1-1.3-0.2-2c0,0.9,0,1.8,0.1,2.7
		c-0.1,0-0.1-0.1-0.2-0.1c0,0.1,0.1,0.1,0.1,0.2c0.1,0,0.1,0.1,0.1,0.2c0.1,0.7,0.2,1.3,0.3,2c0.2,1.3,0.3,2.6,0.4,3.9
		c0.1,1,0.2,2,0.3,3s0.3,2,0.3,3c0,0.4,0.1,0.9,0.2,1.3c0.1,0.4,0.4,0.6,0.8,0.7h0.1c0-0.1-0.1,0-0.1-0.1c-0.2-0.1-0.5-0.2-0.6-0.4
		c-0.2-0.4-0.3-0.7-0.3-1.1s0-0.8-0.1-1.1c-0.1-0.8-0.2-1.6-0.3-2.4c-0.1-1-0.2-2-0.3-3.1c-0.1-1.3-0.3-2.6-0.5-4
		c-0.1-0.5-0.1-1.1-0.2-1.6v-0.1c0.4,0.2,0.8,0.3,1.3,0.4c0.8,0.1,1.6,0.3,2.3,0.4c1.3,0.2,2.6,0.3,3.9,0.3c0.3,0,0.2,0,0.2,0.2
		C-5,59-6.2,62.4-7.2,66c-0.1,0.2-0.1,0.4-0.1,0.5l0.1-0.1c0.7-2.2,1.4-4.3,2.1-6.5c0.5-1.5,1-3,1.5-4.5c0-0.1,0.1-0.2,0.2-0.2
		c0.2,0,0.3,0,0.5,0c0.1,0,0.2,0,0.1,0.1c-0.4,1.3-0.9,2.6-1.3,4c-0.6,1.9-1.3,3.8-1.8,5.8C-6,65.6-6.2,66-6.2,66.5
		c0.2-0.6,0.3-1.1,0.5-1.7c0.6-2,1.3-4,1.9-6c0.4-1.2,0.8-2.3,1.2-3.5c0-0.1,0.1-0.2,0.2-0.2c0.2,0,0.4-0.1,0.5-0.1
		c0.6-0.1,1.2-0.3,1.8-0.7C0,54.2,0.1,54.1,0.2,54c0.1-0.2,0-0.5-0.2-0.5c0.2,0.3,0.2,0.5-0.1,0.7c0,0-0.1,0-0.1,0.1
		c-0.6,0.4-1.3,0.6-2.1,0.7c-0.1,0-0.1,0-0.1-0.1c0.2-0.6,0.4-1.2,0.6-1.8c0-0.1,0.1-0.1,0.2-0.1c0.2,0,0.4,0.1,0.7,0.1
		c-0.2-0.1-0.4-0.2-0.6-0.2s-0.2,0-0.1-0.2c0.1-0.4,0.3-0.9,0.4-1.3c0-0.1,0.1-0.2,0.1-0.3c-0.2,0.5-0.4,0.9-0.6,1.4
		C-2,53.3-2.2,54-2.5,54.8c0,0.1-0.1,0.1-0.2,0.1c-0.2,0-0.3,0-0.5,0c-0.1,0-0.1,0-0.1-0.1c0.5-1.4,1-2.7,1.4-4.1
		c0-0.1,0.1-0.1,0.2-0.1c0.4,0,0.9-0.1,1.3-0.2c0.5-0.1,1-0.2,1.4-0.5c0.2-0.1,0.3-0.3,0.3-0.5S1.1,49.1,0.9,49
		c-0.3-0.1-0.6-0.2-0.9-0.3c-0.1,0-0.1,0-0.1-0.1c0.2-0.4,0.4-0.9,0.6-1.3C0.6,47,0.8,46.8,1,46.6C1.1,46.6,1.1,46.5,1.2,46.5
		L1.2,46.5C1.3,46.7,1.3,46.6,1.2,46.5z"/>
	<path id="XMLID_49_" class="st2" d="M0.4,55.6L0,55.9C0.2,55.9,0.3,55.8,0.4,55.6z"/>
	<path id="XMLID_48_" class="st2" d="M1.1,51.1C1,52.6,0.8,54,0.6,55.5C0.9,54.1,1,52.6,1.1,51.1z"/>
	<path id="XMLID_47_" class="st2" d="M-18,51.1c0,0.1-0.1,0.1,0,0.2c0.1-0.2,0.1-0.4,0.1-0.6C-17.9,50.8-18,51-18,51.1z"/>
	<path id="XMLID_46_" class="st2" d="M-20,65.4c0.6,0.8,1.4,1.2,2.3,1.5c1.1,0.3,2.3,0.3,3.5,0.2c0.8-0.1,1.6-0.2,2.4-0.5
		c0.1-0.1,0.2-0.1,0.3-0.2l0,0c0,0,0.1-0.1,0-0.1c0-0.1-0.1,0-0.1,0s-0.1,0-0.1,0.1c-0.9,0.4-1.9,0.6-2.9,0.6
		c-1.1,0.1-2.2,0-3.3-0.3C-18.7,66.4-19.4,66-20,65.4c0-0.3-0.1-0.4-0.2-0.6c0.1,0.1,0.2,0.2,0.3,0.3c0.4,0.4,0.8,0.7,1.3,0.9
		c1.5,0.6,3,0.7,4.6,0.5c0.8-0.1,1.6-0.3,2.3-0.7c0.1-0.1,0.2-0.1,0.1-0.3c-0.1,0-0.1,0-0.1,0c-0.3,0.2-0.6,0.3-0.9,0.4
		c-1.1,0.4-2.3,0.5-3.5,0.4c-0.9-0.1-1.7-0.2-2.5-0.6c-0.6-0.3-1.1-0.7-1.5-1.2c-0.2-0.3-0.3-0.6-0.2-0.9c0.1-0.4,0-0.8,0-1.2
		c0-1.5-0.1-3.1-0.1-4.7c0-1.1-0.1-2.3-0.1-3.4c0-0.1,0-0.1,0-0.2c0.3,0.6,0.8,0.9,1.3,1.2c0.6,0.3,1.1,0.4,1.7,0.5
		c1.1,0.2,2.1,0.1,3.2,0.1c0.6,0,1.2-0.1,1.7-0.2c0.1,0,0.1-0.1,0.1-0.2s-0.1-0.1-0.1,0c-1.2,0.2-2.5,0.3-3.7,0.2
		c-0.8,0-1.6-0.1-2.4-0.4c-1-0.4-1.8-0.9-2-2c-0.1-0.5-0.1-1,0.1-1.4c0.1-0.2,0.4-0.3,0.6-0.3c0.2,0.1,0.4,0.1,0.6,0.3
		c0.6,0.3,1.1,0.7,1.7,1.1c1.1,0.7,2.2,0.8,3.3,0.2c0.4-0.2,0.8-0.5,1.2-0.7c0.1-0.1,0.1-0.1,0.1-0.3c-0.1,0.1-0.2,0.1-0.3,0.2
		c-0.4,0.2-0.8,0.5-1.3,0.7c-0.8,0.3-1.6,0.4-2.4,0c-0.5-0.2-0.9-0.5-1.3-0.8c-0.4-0.3-0.8-0.5-1.3-0.7c-0.3-0.1-0.6-0.2-0.9,0l0,0
		c0-0.1,0.1-0.1,0.1-0.1c0.4-0.2,0.4-0.4,0.5-0.5c0-0.1,0.1-0.1,0.1-0.1c0.2,0,0.3,0,0.5,0.1c0.6,0,1.1,0.3,1.5,0.7
		c0.5,0.4,1,0.8,1.7,0.9c0.5,0.1,1,0,1.5-0.1c0.6-0.2,1.1-0.4,1.6-0.7l0,0c0.1,0,0-0.1,0-0.1c0-0.1-0.1,0-0.1,0
		c-0.2,0.1-0.4,0.2-0.6,0.2c-0.8,0.3-1.6,0.6-2.5,0.6c-0.3,0-0.7-0.1-1-0.3c-0.2-0.2-0.5-0.4-0.7-0.5c-0.1-0.1-0.2-0.1-0.2-0.2
		c-0.1,0-0.1-0.1-0.2-0.1c-0.2-0.2-0.5-0.4-0.8-0.4c-0.3,0-0.6-0.1-0.9,0c-0.1,0-0.1,0-0.1-0.1c0.2-0.4,0.2-0.7,0.3-1
		c0.1-0.3,0.2-0.6,0.2-0.9v-0.1c0,0-0.1,0-0.1,0.1c-0.2,0.5-0.3,1-0.4,1.6c0,0.2,0,0.5-0.1,0.7c-0.2,0.3-0.3,0.6-0.4,0.9
		c-0.1,0.5-0.1,1.1,0.1,1.6c0,0.1,0,0.1,0,0.2c0,0.4,0,0.9,0,1.3c0,1.3,0.1,2.5,0.1,3.8c0,1.2,0.1,2.4,0.1,3.6c0,0.4,0,0.8,0,1.2
		c0,0.1-0.1,0.2-0.1,0.4c0,0.1,0,0.1,0,0.2v0.1C-20.3,64.8-20.2,65.2-20,65.4z"/>
	<path id="XMLID_45_" class="st2" d="M-18.3,50.2c-0.1,0.2-0.2,0.4-0.2,0.7c0-0.1,0.1-0.2,0.1-0.3C-18.3,50.4-18.3,50.3-18.3,50.2z"
		/>
	<path id="XMLID_44_" class="st2" d="M-20,47.9c0.1,0.3,0.3,0.5,0.3,0.8c0,0.1,0.1,0.3,0.2,0.4c0.1,0.1,0.2,0.2,0.4,0.3
		c0.4,0.2,0.8,0.3,1.2,0.3c0.9,0.1,1.8,0.1,2.7,0.2l0,0c0.1,0,0.2,0,0.3,0c0.6,0,1.1,0,1.7,0c0.1,0,0.1,0,0.1-0.1
		c0-0.1-0.1-0.1-0.1-0.1c-0.2,0-0.3,0-0.5,0c-1.1,0-2.3-0.1-3.4-0.1c-0.5,0-1.1-0.1-1.6-0.3c-0.3-0.1-0.5-0.2-0.7-0.5
		c0,0-0.1-0.1,0-0.1c0.1-0.1,0.1-0.1,0-0.2c-0.1-0.4-0.2-0.7-0.4-1.1c-0.3-0.5-0.5-0.9-0.7-1.4c-0.1-0.3-0.2-0.5-0.2-0.8
		c0-0.1,0-0.3,0.1-0.4c0,0,0.1-0.1,0-0.1l0,0c-0.1,0-0.2,0-0.2,0.1c-0.1,0.1-0.1,0.2-0.1,0.3c0,0.5,0.1,1,0.4,1.4
		C-20.5,46.9-20.2,47.4-20,47.9z"/>
	<path id="XMLID_43_" class="st2" d="M-16.7,47.8c0.6-0.1,1.2-0.1,1.8-0.2C-15.5,47.7-16.1,47.6-16.7,47.8z"/>
	<path id="XMLID_41_" class="st2" d="M-19.3,48.4c0.5-0.3,1.1-0.4,1.7-0.6C-18.2,47.9-18.7,48.1-19.3,48.4L-19.3,48.4z"/>
</g>
</svg>
